<svg xmlns="http://www.w3.org/2000/svg" viewBox="0 0 128 128">
  <defs>
    <linearGradient id="bg" x1="16" x2="112" y1="12" y2="116" gradientUnits="userSpaceOnUse">
      <stop offset="0" stop-color="#1c1917" />
      <stop offset="1" stop-color="#44403c" />
    </linearGradient>
    <linearGradient id="accent" x1="26" x2="104" y1="22" y2="98" gradientUnits="userSpaceOnUse">
      <stop offset="0" stop-color="#f59e0b" />
      <stop offset="1" stop-color="#fde68a" />
    </linearGradient>
  </defs>
  <rect width="128" height="128" rx="28" fill="url(#bg)" />
  <circle cx="96" cy="30" r="12" fill="#38bdf8" fill-opacity="0.75" />
  <path d="M34 30h16v47c0 8.4-2 14.8-6.1 19.4-4.1 4.5-10.3 6.8-18.7 6.8H22V90.3h3.3c3.2 0 5.4-1 6.8-2.9 1.3-1.9 2-5.1 2-9.5V30Z" fill="url(#accent)" />
  <path d="M63 30h16.4l18.2 43.7h1.2V30H114v68H98L79.5 53.9h-1.2V98H63V30Z" fill="#f8fafc" />
</svg>
